# xmcd
#
# Track frame offsets: 
#        150
#        10239
#        23850
#        40706
#        53673
#        68211
#        82107
#        93581
#        110543
#        123252
#        137500
#        151100
#
# Disc length: 2191 seconds
#
# Revision: 0
# Processed by: cddbd v1.5.2PL0 Copyright (c) Steve Scherf et al.
# Submitted via: ExactAudioCopy v1.0b1
#
DISCID=91088d0c
DTITLE=The Country Gentlemen - Yesterday and Today Vol 2
DYEAR=1973
DGENRE=Bluegrass
TTITLE0=Columbus Stockade Blues
TTITLE1=Girl Behind The Bar
TTITLE2=Man Of Constant Sorrow
TTITLE3=Aunt Dinah's Quilting Party
TTITLE4=Cripple Creek
TTITLE5=Philadelphia Lawyer
TTITLE6=This Land Is Your Land
TTITLE7=Lord I'm Coming Home
TTITLE8=Windy And Warm
TTITLE9=Doin' My Time
TTITLE10=East Virginia Blues
TTITLE11=Over The Hills To The Poor House
EXTD=
EXTT0=
EXTT1=
EXTT2=
EXTT3=
EXTT4=
EXTT5=
EXTT6=
EXTT7=
EXTT8=
EXTT9=
EXTT10=
EXTT11=
PLAYORDER=
